<svg width="75" height="67" viewBox="0 0 75 67" fill="none" xmlns="http://www.w3.org/2000/svg">
<g clip-path="url(#clip0_1726_2224)">
<path d="M12.5 0C13.9974 0 15.2865 1.06641 15.5729 2.54036L15.7682 4.16667H70.5469C73.1901 4.16667 75.2995 6.80339 74.5573 9.46094L67.526 34.4661C67.0182 36.263 65.3776 37.5 63.5156 37.5H22.2266L23.4245 43.75H63.5417C65.2734 43.75 66.6667 45.1432 66.6667 46.875C66.6667 48.6068 65.2734 50 63.5417 50H20.7161C19.3359 50 18.0469 48.9323 17.7604 47.4609L9.91406 6.25H3.125C1.39974 6.25 0 4.85026 0 3.125C0 1.39974 1.39974 0 3.125 0H12.5ZM16.6667 60.4167C16.6667 56.9661 19.4661 54.1667 22.9167 54.1667C26.3672 54.1667 29.1667 56.9661 29.1667 60.4167C29.1667 63.8672 26.3672 66.6667 22.9167 66.6667C19.4661 66.6667 16.6667 63.8672 16.6667 60.4167ZM66.6667 60.4167C66.6667 63.8672 63.8672 66.6667 60.4167 66.6667C56.9661 66.6667 54.1667 63.8672 54.1667 60.4167C54.1667 56.9661 56.9661 54.1667 60.4167 54.1667C63.8672 54.1667 66.6667 56.9661 66.6667 60.4167Z" fill="#4B94BE"/>
<g clip-path="url(#clip1_1726_2224)">
<path d="M46.0327 20.6367L50.5814 16.0881C51.1395 15.5299 51.1395 14.6249 50.5814 14.0663L49.5705 13.0554C49.0123 12.4972 48.1073 12.4972 47.5486 13.0554L43 17.604L38.4514 13.0554C37.8932 12.4972 36.9882 12.4972 36.4295 13.0554L35.4186 14.0663C34.8605 14.6244 34.8605 15.5294 35.4186 16.0881L39.9673 20.6367L35.4186 25.1854C34.8605 25.7435 34.8605 26.6485 35.4186 27.2072L36.4295 28.2181C36.9877 28.7763 37.8932 28.7763 38.4514 28.2181L43 23.6694L47.5486 28.2181C48.1068 28.7763 49.0123 28.7763 49.5705 28.2181L50.5814 27.2072C51.1395 26.649 51.1395 25.744 50.5814 25.1854L46.0327 20.6367Z" fill="white"/>
</g>
</g>
<defs>
<clipPath id="clip0_1726_2224">
<rect width="75" height="66.6667" fill="white"/>
</clipPath>
<clipPath id="clip1_1726_2224">
<rect width="16" height="23.2727" fill="white" transform="translate(35 9)"/>
</clipPath>
</defs>
</svg>
