<svg width="16" height="19" viewBox="0 0 16 19" fill="none" xmlns="http://www.w3.org/2000/svg">
<g clip-path="url(#clip0_1726_7395)">
<path d="M9.57143 14.8571H10.4286C10.5422 14.8571 10.6512 14.812 10.7316 14.7316C10.812 14.6512 10.8571 14.5422 10.8571 14.4286V6.71428C10.8571 6.60062 10.812 6.49161 10.7316 6.41124C10.6512 6.33087 10.5422 6.28571 10.4286 6.28571H9.57143C9.45776 6.28571 9.34876 6.33087 9.26838 6.41124C9.18801 6.49161 9.14286 6.60062 9.14286 6.71428V14.4286C9.14286 14.5422 9.18801 14.6512 9.26838 14.7316C9.34876 14.812 9.45776 14.8571 9.57143 14.8571ZM15.4286 2.85714H12.4854L11.2711 0.832143C11.1187 0.57822 10.9031 0.368104 10.6454 0.22227C10.3876 0.0764366 10.0965 -0.000140835 9.80036 1.94445e-07H6.19964C5.90362 -1.7456e-05 5.61264 0.0766186 5.35504 0.222446C5.09743 0.368274 4.88197 0.578324 4.72964 0.832143L3.51464 2.85714H0.571429C0.419876 2.85714 0.274531 2.91735 0.167368 3.02451C0.0602039 3.13167 0 3.27702 0 3.42857L0 4C0 4.15155 0.0602039 4.2969 0.167368 4.40406C0.274531 4.51122 0.419876 4.57143 0.571429 4.57143H1.14286V16.5714C1.14286 17.0261 1.32347 17.4621 1.64496 17.7836C1.96645 18.1051 2.40249 18.2857 2.85714 18.2857H13.1429C13.5975 18.2857 14.0336 18.1051 14.355 17.7836C14.6765 17.4621 14.8571 17.0261 14.8571 16.5714V4.57143H15.4286C15.5801 4.57143 15.7255 4.51122 15.8326 4.40406C15.9398 4.2969 16 4.15155 16 4V3.42857C16 3.27702 15.9398 3.13167 15.8326 3.02451C15.7255 2.91735 15.5801 2.85714 15.4286 2.85714ZM6.13714 1.81821C6.15624 1.78643 6.18326 1.76014 6.21557 1.74192C6.24787 1.7237 6.28434 1.71418 6.32143 1.71429H9.67857C9.7156 1.71424 9.752 1.72379 9.78423 1.74201C9.81647 1.76022 9.84343 1.78648 9.8625 1.81821L10.4861 2.85714H5.51393L6.13714 1.81821ZM13.1429 16.5714H2.85714V4.57143H13.1429V16.5714ZM5.57143 14.8571H6.42857C6.54224 14.8571 6.65124 14.812 6.73162 14.7316C6.81199 14.6512 6.85714 14.5422 6.85714 14.4286V6.71428C6.85714 6.60062 6.81199 6.49161 6.73162 6.41124C6.65124 6.33087 6.54224 6.28571 6.42857 6.28571H5.57143C5.45776 6.28571 5.34876 6.33087 5.26838 6.41124C5.18801 6.49161 5.14286 6.60062 5.14286 6.71428V14.4286C5.14286 14.5422 5.18801 14.6512 5.26838 14.7316C5.34876 14.812 5.45776 14.8571 5.57143 14.8571Z" fill="#01385E"/>
</g>
<defs>
<clipPath id="clip0_1726_7395">
<rect width="16" height="18.2857" fill="white"/>
</clipPath>
</defs>
</svg>
