<svg width="70" height="70" viewBox="0 0 70 70" fill="none" xmlns="http://www.w3.org/2000/svg">
<path d="M64.3535 1.29076C64.7637 1.70762 65.0781 2.1875 65.2969 2.7002C65.502 3.21289 65.502 3.77344 65.625 4.36133V4.375V17.5C65.625 19.9199 63.6699 21.875 61.25 21.875C58.8301 21.875 56.875 19.9199 56.875 17.5V14.9434L42.4648 29.3398C40.8516 30.9668 38.2676 31.0625 36.5312 29.5723L23.9395 18.8809L11.5965 29.5723C9.76309 31.1445 7 30.9258 5.42773 29.0938C3.85547 27.2617 4.06875 24.5 5.90215 22.9277L21.2188 9.80273C22.8594 8.39863 25.2656 8.39863 26.9062 9.80273L39.1426 20.2891L50.6816 8.75H48.125C45.7051 8.75 43.75 6.79082 43.75 4.375C43.75 1.95918 45.7051 0 48.125 0H61.127C62.4531 0 63.5469 0.485898 64.3398 1.27217L64.3535 1.29076ZM0 41.5625C0 37.9395 2.93809 35 6.5625 35H63.4375C67.0605 35 70 37.9395 70 41.5625V63.4375C70 67.0605 67.0605 70 63.4375 70H6.5625C2.93809 70 0 67.0605 0 63.4375V41.5625ZM6.5625 63.4375H13.125C13.125 59.8145 10.1869 56.875 6.5625 56.875V63.4375ZM6.5625 41.5625V48.125C10.1869 48.125 13.125 45.1855 13.125 41.5625H6.5625ZM63.4375 56.875C59.8145 56.875 56.875 59.8145 56.875 63.4375H63.4375V56.875ZM56.875 41.5625C56.875 45.1855 59.8145 48.125 63.4375 48.125V41.5625H56.875ZM35 43.75C30.1738 43.75 26.25 47.6738 26.25 52.5C26.25 57.3262 30.1738 61.25 35 61.25C39.8262 61.25 43.75 57.3262 43.75 52.5C43.75 47.6738 39.8262 43.75 35 43.75Z" fill="#4B94BE"/>
</svg>
