<svg width="84" height="44" viewBox="0 0 84 44" fill="none" xmlns="http://www.w3.org/2000/svg">
<rect x="1.5" y="1.5" width="81" height="41" rx="20.5" fill="#D7EBF3" stroke="#D7EBF3" stroke-width="3"/>
<path fill-rule="evenodd" clip-rule="evenodd" d="M61 41C72.0457 41 81 32.4934 81 22C81 11.5066 72.0457 3 61 3C49.9543 3 41 11.5066 41 22C41 32.4934 49.9543 41 61 41Z" fill="#4B94BE"/>
<path d="M68.4003 21.7158H54.7225C54.4708 21.7158 54.2666 21.9511 54.2666 22.241C54.2666 22.531 54.4708 22.7662 54.7225 22.7662H68.4003C68.652 22.7662 68.8562 22.531 68.8562 22.241C68.8562 21.9511 68.652 21.7158 68.4003 21.7158Z" fill="white"/>
<path d="M54.7225 18.565H68.4003C68.652 18.565 68.8562 18.3298 68.8562 18.0398C68.8562 17.7499 68.652 17.5146 68.4003 17.5146H54.7225C54.4708 17.5146 54.2666 17.7499 54.2666 18.0398C54.2666 18.3298 54.4708 18.565 54.7225 18.565Z" fill="white"/>
<path d="M68.4003 25.918H54.7225C54.4708 25.918 54.2666 26.1532 54.2666 26.4432C54.2666 26.7331 54.4708 26.9684 54.7225 26.9684H68.4003C68.652 26.9684 68.8562 26.7331 68.8562 26.4432C68.8562 26.1532 68.652 25.918 68.4003 25.918Z" fill="white"/>
<path d="M23.2503 14.9243C23.2503 14.1578 22.7108 13.5371 22.0461 13.5371H17.1691C16.5036 13.5371 15.9648 14.1586 15.9648 14.9243V19.8435C15.9648 20.6101 16.5043 21.2307 17.1691 21.2307H22.0468C22.7122 21.2307 23.251 20.6093 23.251 19.8435V14.9243H23.2503Z" fill="#4B94BE"/>
<path d="M31.8721 14.9243C31.8721 14.1578 31.3333 13.5371 30.6679 13.5371H25.7901C25.1247 13.5371 24.5859 14.1586 24.5859 14.9243V19.8435C24.5859 20.6101 25.1247 21.2307 25.7901 21.2307H30.6679C31.3333 21.2307 31.8721 20.6093 31.8721 19.8435V14.9243Z" fill="#4B94BE"/>
<path d="M23.2503 24.1577C23.2503 23.3912 22.7108 22.7705 22.0461 22.7705H17.1691C16.5036 22.7705 15.9648 23.3912 15.9648 24.1577V29.0777C15.9648 29.8435 16.5043 30.4649 17.1691 30.4649H22.0468C22.7122 30.4649 23.251 29.8435 23.251 29.0777V24.1577H23.2503Z" fill="#4B94BE"/>
<path d="M31.8721 24.1577C31.8721 23.3912 31.3333 22.7705 30.6679 22.7705H25.7901C25.1247 22.7705 24.5859 23.3912 24.5859 24.1577V29.0777C24.5859 29.8435 25.1247 30.4649 25.7901 30.4649H30.6679C31.3333 30.4649 31.8721 29.8435 31.8721 29.0777V24.1577Z" fill="#4B94BE"/>
</svg>
