<svg width="14" height="19" viewBox="0 0 14 19" fill="none" xmlns="http://www.w3.org/2000/svg">
<g clip-path="url(#clip0_1726_7397)">
<path d="M8.16667 4.95833V0H0.875C0.390104 0 0 0.390104 0 0.875V17.7917C0 18.2766 0.390104 18.6667 0.875 18.6667H13.125C13.6099 18.6667 14 18.2766 14 17.7917V5.83333H9.04167C8.56042 5.83333 8.16667 5.43958 8.16667 4.95833ZM10.543 12.8337H8.16667V15.7504C8.16667 16.0727 7.90562 16.3337 7.58333 16.3337H6.41667C6.09437 16.3337 5.83333 16.0727 5.83333 15.7504V12.8337H3.45698C2.93635 12.8337 2.67641 12.2033 3.04609 11.8362L6.56141 8.34714C6.80385 8.10615 7.19542 8.10615 7.43786 8.34714L10.9532 11.8362C11.3232 12.2033 11.0636 12.8337 10.543 12.8337ZM13.7448 3.82813L10.1755 0.255208C10.0115 0.0911458 9.78906 0 9.55573 0H9.33333V4.66667H14V4.44427C14 4.21458 13.9089 3.99219 13.7448 3.82813Z" fill="#01385E"/>
</g>
<defs>
<clipPath id="clip0_1726_7397">
<rect width="14" height="18.6667" fill="white"/>
</clipPath>
</defs>
</svg>
