<svg width="24" height="28" viewBox="0 0 24 28" fill="none" xmlns="http://www.w3.org/2000/svg">
<g clip-path="url(#clip0_1726_2243)">
<path d="M18.8571 6.85714C18.8571 10.6446 15.7875 13.7143 12 13.7143C8.2125 13.7143 5.14286 10.6446 5.14286 6.85714C5.14286 3.07018 8.2125 0 12 0C15.7875 0 18.8571 3.07018 18.8571 6.85714ZM11.2018 19.2429L9.42857 16.2857H14.5714L12.7982 19.2429L14.5821 25.8804L16.6982 17.2446C20.8339 17.8875 24 21.4661 24 25.7839C24 26.6893 23.2607 27.4286 22.3554 27.4286H1.64571C0.736607 27.4286 0 26.6893 0 25.7839C0 21.4661 3.16554 17.8875 7.30179 17.2446L9.41786 25.8804L11.2018 19.2429Z" fill="#4B94BE"/>
</g>
<defs>
<clipPath id="clip0_1726_2243">
<rect width="24" height="27.4286" fill="white"/>
</clipPath>
</defs>
</svg>
