<svg width="19" height="15" viewBox="0 0 19 15" fill="none" xmlns="http://www.w3.org/2000/svg">
    <path d="M13.7222 5.33344C13.7222 2.41747 10.6512 0.0556641 6.86111 0.0556641C3.07101 0.0556641 0 2.41747 0 5.33344C0 6.46487 0.465104 7.50723 1.25347 8.36816C0.811458 9.36434 0.0824653 10.156 0.0725694 10.1659C0 10.2418 -0.0197917 10.3539 0.0230903 10.4529C0.0659722 10.5518 0.158333 10.6112 0.263889 10.6112C1.47118 10.6112 2.47066 10.2055 3.18976 9.78657C4.25191 10.3044 5.50868 10.6112 6.86111 10.6112C10.6512 10.6112 13.7222 8.24941 13.7222 5.33344ZM17.7465 12.5904C18.5349 11.7327 19 10.6871 19 9.55566C19 7.34889 17.2352 5.45879 14.7349 4.67042C14.7646 4.88813 14.7778 5.10914 14.7778 5.33344C14.7778 8.82667 11.2252 11.6668 6.86111 11.6668C6.50486 11.6668 6.15851 11.6404 5.81545 11.6041C6.85451 13.5008 9.29549 14.8334 12.1389 14.8334C13.4913 14.8334 14.7481 14.53 15.8102 14.0088C16.5293 14.4277 17.5288 14.8334 18.7361 14.8334C18.8417 14.8334 18.9373 14.7708 18.9769 14.6751C19.0198 14.5794 19 14.4673 18.9274 14.3881C18.9175 14.3782 18.1885 13.5899 17.7465 12.5904Z" fill="white"/>
</svg>
