<svg width="21" height="13" viewBox="0 0 21 13" fill="none" xmlns="http://www.w3.org/2000/svg">
    <path d="M19.948 3.28758L11.2311 0.609453C10.7561 0.463516 10.2436 0.463516 9.76891 0.609453L1.05172 3.28758C0.316094 3.51352 0.316094 4.48633 1.05172 4.71227L2.57141 5.17914C2.23797 5.59133 2.03297 6.09414 2.01266 6.64477C1.71172 6.81727 1.49984 7.12852 1.49984 7.50008C1.49984 7.83696 1.67734 8.12039 1.93297 8.30164L1.13516 11.8916C1.06578 12.2038 1.30328 12.5001 1.62297 12.5001H3.37641C3.69641 12.5001 3.93391 12.2038 3.86453 11.8916L3.06672 8.30164C3.32234 8.12039 3.49984 7.83696 3.49984 7.50008C3.49984 7.13852 3.29766 6.83602 3.01047 6.66039C3.03422 6.19102 3.27422 5.77602 3.65703 5.51289L9.76859 7.39071C10.0517 7.47758 10.5948 7.58602 11.2308 7.39071L19.948 4.71258C20.6839 4.48633 20.6839 3.51383 19.948 3.28758ZM11.5245 8.34664C10.633 8.62039 9.87328 8.46914 9.47484 8.34664L4.94297 6.95446L4.49984 10.5001C4.49984 11.6048 7.18609 12.5001 10.4998 12.5001C13.8136 12.5001 16.4998 11.6048 16.4998 10.5001L16.0567 6.95414L11.5245 8.34664Z" fill="white"/>
</svg>
