<svg width="15" height="23" viewBox="0 0 15 23" fill="none" xmlns="http://www.w3.org/2000/svg">
    <path d="M12.1986 2.06582C10.7484 0.963672 9.11367 0.583984 7.04121 0.583984C5.46973 0.583984 4.125 0.905664 3.05977 1.62285C1.48828 2.69336 0.75 4.4916 0.75 7.33398H4.8C4.8 6.57461 4.72617 5.75723 5.16914 5.05586C5.61211 4.35449 6.2291 3.8166 7.28906 3.8166C8.36484 3.8166 8.91855 4.12773 9.44062 4.77109C9.88359 5.31953 10.0523 5.97344 10.0523 6.66953C10.0523 7.2707 9.74648 7.82441 9.38262 8.32539C9.18223 8.6207 8.91856 8.88438 8.58633 9.1375C8.58633 9.1375 6.39785 10.44 5.62793 11.674C5.05312 12.5916 4.84746 13.7412 4.8 15.1176C4.79473 15.2178 4.83164 15.4234 5.17969 15.4234C5.52246 15.4234 8.13281 15.4234 8.43867 15.4234C8.74453 15.4234 8.80781 15.1914 8.81309 15.0965C8.83418 14.5955 8.89746 13.8256 8.98711 13.5355C9.16113 12.9871 9.49863 12.5072 10.026 12.0959L11.1176 11.3418C12.1037 10.5719 12.8895 9.94434 13.2375 9.44863C13.8334 8.63652 14.25 7.63457 14.25 6.44805C14.25 4.5127 13.5381 3.08359 12.1986 2.06582ZM6.76172 17.5223C5.3959 17.4801 4.26738 18.4293 4.21992 19.9111C4.17773 21.3982 5.24824 22.3738 6.61934 22.416C8.04316 22.4582 9.14531 21.5406 9.1875 20.0588C9.22969 18.577 8.18555 17.5645 6.76172 17.5223Z" fill="#01385E"/>
</svg>
