<svg width="19" height="16" viewBox="0 0 19 16" fill="none" xmlns="http://www.w3.org/2000/svg">
    <path d="M9.24878 4.39093L3.16715 9.39987V14.806C3.16715 14.9459 3.22275 15.0802 3.32173 15.1792C3.42071 15.2781 3.55495 15.3337 3.69493 15.3337L7.39134 15.3242C7.53085 15.3235 7.66442 15.2676 7.76282 15.1687C7.86123 15.0698 7.91647 14.9359 7.91647 14.7964V11.6393C7.91647 11.4993 7.97208 11.3651 8.07105 11.2661C8.17003 11.1671 8.30427 11.1115 8.44425 11.1115H10.5554C10.6953 11.1115 10.8296 11.1671 10.9285 11.2661C11.0275 11.3651 11.0831 11.4993 11.0831 11.6393V14.7941C11.0829 14.8635 11.0964 14.9323 11.1228 14.9966C11.1493 15.0608 11.1881 15.1192 11.2371 15.1684C11.2862 15.2175 11.3444 15.2566 11.4086 15.2832C11.4727 15.3098 11.5415 15.3235 11.6109 15.3235L15.306 15.3337C15.446 15.3337 15.5802 15.2781 15.6792 15.1792C15.7782 15.0802 15.8338 14.9459 15.8338 14.806V9.39625L9.75346 4.39093C9.68198 4.33331 9.59293 4.30189 9.50112 4.30189C9.40931 4.30189 9.32026 4.33331 9.24878 4.39093V4.39093ZM18.8553 7.79543L16.0977 5.52236V0.953451C16.0977 0.848469 16.056 0.747787 15.9817 0.673554C15.9075 0.599321 15.8068 0.557617 15.7018 0.557617H13.8546C13.7496 0.557617 13.6489 0.599321 13.5747 0.673554C13.5005 0.747787 13.4588 0.848469 13.4588 0.953451V3.34857L10.5055 0.918815C10.2221 0.685596 9.8665 0.558083 9.49947 0.558083C9.13244 0.558083 8.77681 0.685596 8.4934 0.918815L0.143654 7.79543C0.103571 7.82856 0.0704099 7.86926 0.0460636 7.91521C0.0217173 7.96116 0.00666342 8.01146 0.00176216 8.06323C-0.0031391 8.115 0.0022083 8.16723 0.0174988 8.21693C0.0327893 8.26663 0.0577233 8.31283 0.090876 8.35289L0.932019 9.37546C0.965081 9.41567 1.00575 9.44895 1.05169 9.47342C1.09763 9.49789 1.14795 9.51305 1.19976 9.51804C1.25157 9.52304 1.30386 9.51776 1.35363 9.50253C1.4034 9.48729 1.44968 9.46238 1.48981 9.42923L9.24878 3.0385C9.32026 2.98088 9.40931 2.94946 9.50112 2.94946C9.59293 2.94946 9.68198 2.98088 9.75346 3.0385L17.5128 9.42923C17.5528 9.46239 17.599 9.48732 17.6487 9.50261C17.6984 9.5179 17.7507 9.52325 17.8024 9.51835C17.8542 9.51345 17.9045 9.49839 17.9504 9.47404C17.9964 9.4497 18.0371 9.41654 18.0702 9.37645L18.9114 8.35388C18.9445 8.31359 18.9693 8.26715 18.9844 8.21723C18.9995 8.16731 19.0046 8.1149 18.9994 8.063C18.9942 8.0111 18.9788 7.96075 18.9541 7.91483C18.9293 7.86891 18.8958 7.82833 18.8553 7.79543V7.79543Z" fill="white"/>
</svg>
