<svg width="18" height="16" viewBox="0 0 18 16" fill="none" xmlns="http://www.w3.org/2000/svg">
    <path d="M18 7.5C18 6.76156 17.5953 6.12375 17 5.7775V1.00031C17 0.726875 16.7819 0 16 0C15.7775 0 15.5566 0.074375 15.3756 0.219375L12.7184 2.34531C11.3837 3.41219 9.70813 4 8 4H2C0.895313 4 0 4.89531 0 6V9C0 10.1047 0.895313 11 2 11H3.05312C3.00969 11.3275 2.985 11.6606 2.985 12C2.985 13.2428 3.27437 14.4172 3.78375 15.4669C3.94594 15.8009 4.3 16 4.67125 16H6.9925C7.80656 16 8.29531 15.0675 7.80188 14.42C7.28938 13.7475 6.98469 12.9087 6.98469 12C6.98469 11.6528 7.03531 11.3191 7.1225 11H8C9.70813 11 11.3837 11.5878 12.7181 12.6547L15.3753 14.7806C15.5525 14.9224 15.7727 14.9998 15.9997 15C16.7784 15 16.9997 14.2881 16.9997 14V9.22281C17.5953 8.87625 18 8.23844 18 7.5ZM15 11.9194L13.9672 11.0931C12.2797 9.74312 10.16 9 8 9V6C10.16 6 12.2797 5.25688 13.9672 3.90687L15 3.08063V11.9194Z" fill="white"/>
</svg>
