<svg width="18" height="17" viewBox="0 0 18 17" fill="none" xmlns="http://www.w3.org/2000/svg">
    <path d="M16.9366 13.1385L13.0485 9.25039C12.2815 8.4834 11.136 8.33398 10.213 8.78887L6.67354 5.24941V3.1875L2.42354 0L0.298535 2.125L3.48604 6.375H5.54795L9.0874 9.91445C8.63584 10.8375 8.78193 11.983 9.54893 12.75L13.437 16.6381C13.9218 17.1229 14.7054 17.1229 15.1868 16.6381L16.9366 14.8883C17.4181 14.4035 17.4181 13.6199 16.9366 13.1385V13.1385ZM11.312 7.4707C12.2517 7.4707 13.1349 7.83594 13.7989 8.5L14.4431 9.14414C14.9677 8.91504 15.4657 8.59629 15.8974 8.16465C17.1292 6.93281 17.5476 5.19961 17.1558 3.62578C17.0827 3.32695 16.7075 3.22402 16.4884 3.44316L14.0181 5.91348L11.7636 5.53828L11.3884 3.28379L13.8587 0.813477C14.0778 0.594336 13.9716 0.219141 13.6694 0.142773C12.0956 -0.245703 10.3624 0.172656 9.13389 1.40117C8.1876 2.34746 7.74268 3.5959 7.76592 4.84102L10.4919 7.56699C10.7608 7.50391 11.0397 7.4707 11.312 7.4707ZM7.86221 10.1934L5.97959 8.31074L0.919434 13.3742C0.0893555 14.2043 0.0893555 15.549 0.919434 16.3791C1.74951 17.2092 3.09424 17.2092 3.92432 16.3791L8.02822 12.2752C7.77588 11.6145 7.69951 10.8939 7.86221 10.1934V10.1934ZM2.42354 15.6719C1.98525 15.6719 1.62666 15.3133 1.62666 14.875C1.62666 14.4334 1.98193 14.0781 2.42354 14.0781C2.86514 14.0781 3.22041 14.4334 3.22041 14.875C3.22041 15.3133 2.86514 15.6719 2.42354 15.6719Z" fill="white"/>
</svg>
