<svg width="20" height="16" viewBox="0 0 20 16" fill="none" xmlns="http://www.w3.org/2000/svg">
    <path d="M12.85 10.375H14.275C14.5125 10.375 14.75 10.1375 14.75 9.9V4.9125C14.75 4.675 14.5125 4.4375 14.275 4.4375H12.85C12.6125 4.4375 12.375 4.675 12.375 4.9125V9.9C12.375 10.1375 12.6125 10.375 12.85 10.375V10.375ZM16.4125 10.375H17.8375C18.075 10.375 18.3125 10.1375 18.3125 9.9V1.35C18.3125 1.1125 18.075 0.875 17.8375 0.875H16.4125C16.175 0.875 15.9375 1.1125 15.9375 1.35V9.9C15.9375 10.1375 16.175 10.375 16.4125 10.375ZM5.725 10.375H7.15C7.3875 10.375 7.625 10.1375 7.625 9.9V7.2875C7.625 7.05 7.3875 6.8125 7.15 6.8125H5.725C5.4875 6.8125 5.25 7.05 5.25 7.2875V9.9C5.25 10.1375 5.4875 10.375 5.725 10.375ZM9.2875 10.375H10.7125C10.95 10.375 11.1875 10.1375 11.1875 9.9V2.5375C11.1875 2.3 10.95 2.0625 10.7125 2.0625H9.2875C9.05 2.0625 8.8125 2.3 8.8125 2.5375V9.9C8.8125 10.1375 9.05 10.375 9.2875 10.375V10.375ZM18.9062 12.75H2.875V1.46875C2.875 1.1407 2.6093 0.875 2.28125 0.875H1.09375C0.765703 0.875 0.5 1.1407 0.5 1.46875V13.9375C0.5 14.5932 1.03178 15.125 1.6875 15.125H18.9062C19.2343 15.125 19.5 14.8593 19.5 14.5312V13.3438C19.5 13.0157 19.2343 12.75 18.9062 12.75Z" fill="white"/>
</svg>
