<svg width="22" height="20" viewBox="0 0 22 20" fill="none" xmlns="http://www.w3.org/2000/svg">
    <path d="M21.7521 16.8061C22.4571 18.028 21.5722 19.5556 20.1641 19.5556H1.8351C0.424313 19.5556 -0.456527 18.0257 0.247091 16.8061L9.4117 0.916094C10.117 -0.306472 11.8836 -0.304257 12.5877 0.916094L21.7521 16.8061ZM10.9997 13.5208C10.0294 13.5208 9.24276 14.3074 9.24276 15.2778C9.24276 16.2481 10.0294 17.0347 10.9997 17.0347C11.97 17.0347 12.7567 16.2481 12.7567 15.2778C12.7567 14.3074 11.97 13.5208 10.9997 13.5208ZM9.33164 7.20553L9.61497 12.4C9.62822 12.643 9.8292 12.8333 10.0726 12.8333H11.9268C12.1702 12.8333 12.3712 12.643 12.3844 12.4L12.6678 7.20553C12.6821 6.94299 12.4731 6.72222 12.2101 6.72222H9.78925C9.52632 6.72222 9.31732 6.94299 9.33164 7.20553Z" fill="#E9773A"/>
</svg>
