<svg width="35" height="30" viewBox="0 0 35 30" fill="none" xmlns="http://www.w3.org/2000/svg">
    <rect width="30" height="30" rx="15" fill="#E9F8FC"/>
    <path fill-rule="evenodd" clip-rule="evenodd" d="M16.4167 10.4167C16.4167 9.91041 16.0063 9.5 15.5 9.5C14.9937 9.5 14.5833 9.91041 14.5833 10.4167V14.0833H10.9167C10.4104 14.0833 10 14.4937 10 15C10 15.5063 10.4104 15.9167 10.9167 15.9167H14.5833V19.5833C14.5833 20.0896 14.9937 20.5 15.5 20.5C16.0063 20.5 16.4167 20.0896 16.4167 19.5833V15.9167H20.0833C20.5896 15.9167 21 15.5063 21 15C21 14.4937 20.5896 14.0833 20.0833 14.0833H16.4167V10.4167Z" fill="#01385E"/>
</svg>
