<svg width="209" height="37" viewBox="0 0 209 37" fill="none" xmlns="http://www.w3.org/2000/svg">
    <path d="M31.6591 10.1967C31.6591 14.6545 29.1074 18.8282 24.6806 20.2332V19.071C26.7881 17.9242 27.8728 15.9768 27.8728 10.1089C27.8728 2.42782 24.536 1.18294 21.0028 1.18294H12.8568V30.5073H9.29266V0.0258789H21.0028C25.1352 0.0310444 31.6591 1.3534 31.6591 10.1967" fill="#01385E"/>
    <path d="M0 36.0909V0.0307617H3.50736V34.9338H12.8568V36.0909H0Z" fill="#01385E"/>
    <path d="M18.5854 5.85254H22.1496V36.0912H18.5854V5.85254Z" fill="#01385E"/>

    <path d="M148.45 36.0861V35.2235L144.385 35.301V27.2894H142.846V36.0861H148.45ZM137.66 32.274H135.134L136.41 29.3969L137.66 32.274ZM141.028 36.0861L136.983 27.186H136.57L132.437 36.0861H133.439L134.793 33.0592H137.995L139.307 36.0861H141.028ZM130.216 36.2256H130.629V27.2894H129.741L129.839 33.4724L124.147 27.1912H123.697V36.0913H124.586L124.488 29.9082L130.216 36.2256ZM119.555 31.6955C119.555 33.772 118.279 35.4146 116.662 35.4146C115.05 35.4146 113.769 33.7772 113.769 31.6955C113.769 29.619 115.045 27.966 116.662 27.966C118.279 27.966 119.555 29.619 119.555 31.6955ZM121.166 31.6955C121.166 29.1954 119.162 27.1912 116.662 27.1912C114.157 27.1912 112.158 29.1954 112.158 31.6955C112.158 34.1852 114.162 36.1895 116.662 36.1895C119.167 36.1895 121.166 34.1852 121.166 31.6955ZM109.482 27.2894H107.932V36.0861H109.482V27.2894ZM105.598 28.1313V27.2945H99.1046V28.1313L101.584 28.0797V36.0913H103.123V28.0797L105.598 28.1313ZM95.3751 32.274H92.8441L94.1199 29.3969L95.3751 32.274ZM98.743 36.0861L94.6985 27.186H94.2852L90.158 36.0861H91.1601L92.5135 33.0592H95.7161L97.0281 36.0861H98.743ZM87.9317 36.2256H88.3449V27.2894H87.4565L87.5546 33.4724L81.8623 27.1912H81.4129V36.0913H82.3013L82.2032 29.9082L87.9317 36.2256ZM74.0883 28.0797H75.2143C76.2268 28.0797 77.1669 28.6685 77.1669 29.9341C77.1669 31.1996 76.2268 31.7885 75.2143 31.7885H74.0883V28.0797ZM79.5327 36.0861L76.1389 32.4083C77.6524 32.2947 78.7682 31.2564 78.7682 29.9289C78.7682 28.4412 77.4561 27.2894 75.6276 27.2894H72.5489V36.0861H74.0883V32.2689L77.5801 36.0861H79.5327ZM69.6976 36.0861V35.2235L65.6324 35.301V32.0364L69.5375 32.0622V31.2254L65.6324 31.2513V28.0848L69.6976 28.1623V27.2997H64.0879V36.0965H69.6976V36.0861ZM61.9133 28.1313V27.2945H55.4203V28.1313L57.8997 28.0797V36.0913H59.439V28.0797L61.9133 28.1313ZM52.8272 36.2256H53.2404V27.2894H52.352L52.4501 33.4724L46.7578 27.1912H46.3084V36.0913H47.1968L47.0987 29.9082L52.8272 36.2256ZM43.0283 27.2894H41.4735V36.0861H43.0283V27.2894Z" fill="#58595B"/>
    <path d="M116.373 18.0531C116.373 20.1296 115.097 21.7671 113.48 21.7671C111.863 21.7671 110.588 20.1296 110.588 18.0531C110.588 15.9766 111.863 14.3236 113.48 14.3236C115.097 14.3236 116.373 15.9766 116.373 18.0531ZM117.99 18.0531C117.99 15.5479 115.985 13.5488 113.485 13.5488C110.98 13.5488 108.981 15.553 108.981 18.0531C108.981 20.5429 110.985 22.5471 113.485 22.5471C115.985 22.5471 117.99 20.5429 117.99 18.0531ZM106.3 13.647H104.751V22.4438H106.3V13.647ZM102.297 22.4438V21.5811L98.2317 21.6586V13.647H96.6924V22.4438H102.297ZM92.5497 18.0531C92.5497 20.1296 91.2738 21.7671 89.657 21.7671C88.0402 21.7671 86.7644 20.1296 86.7644 18.0531C86.7644 15.9766 88.0402 14.3236 89.657 14.3236C91.2738 14.3236 92.5497 15.9766 92.5497 18.0531ZM94.1613 18.0531C94.1613 15.5479 92.1571 13.5488 89.657 13.5488C87.1518 13.5488 85.1527 15.553 85.1527 18.0531C85.1527 20.5429 87.1569 22.5471 89.657 22.5471C92.1623 22.5471 94.1613 20.5429 94.1613 18.0531ZM83.102 14.5096V13.647H77.4975V22.4438H79.073V18.3889L82.9419 18.4147V17.5779L79.073 17.6037V14.4373L83.102 14.5096ZM75.3177 14.4838V13.647H68.8247V14.4838L71.3041 14.4321V22.4438H72.8434V14.4321L75.3177 14.4838ZM62.4505 14.4373H63.5766C64.589 14.4373 65.5291 15.0262 65.5291 16.2917C65.5291 17.5572 64.589 18.1461 63.5766 18.1461H62.4505V14.4373ZM67.8949 22.4438L64.5012 18.766C66.0147 18.6523 67.1304 17.6141 67.1304 16.2865C67.1304 14.7989 65.8184 13.647 63.9898 13.647H60.9112V22.4438H62.4505V18.6265L65.9424 22.4438H67.8949ZM56.7685 18.0531C56.7685 20.1296 55.4926 21.7671 53.8758 21.7671C52.259 21.7671 50.9832 20.1296 50.9832 18.0531C50.9832 15.9766 52.259 14.3236 53.8758 14.3236C55.4926 14.3236 56.7685 15.9766 56.7685 18.0531ZM58.3853 18.0531C58.3853 15.5479 56.3811 13.5488 53.881 13.5488C51.3758 13.5488 49.3767 15.553 49.3767 18.0531C49.3767 20.5429 51.3809 22.5471 53.881 22.5471C56.3811 22.5471 58.3853 20.5429 58.3853 18.0531ZM45.8797 16.24C45.8797 17.3661 45.079 18.0428 44.1131 18.0428H42.987V14.4373H44.1131C45.079 14.4373 45.8797 15.114 45.8797 16.24ZM47.4862 16.24C47.4862 14.7524 46.3342 13.6521 44.7071 13.6521H41.4529V22.4489H42.9922V18.8176H44.7071C46.3342 18.8176 47.4862 17.7277 47.4862 16.24" fill="#58595B"/>
    <path d="M93.0714 0.00515475H91.9092L89.3677 4.04972L86.6869 0.00515475H84.8325L88.1487 4.91235V8.80194H89.75V4.91235L93.0714 0.00515475ZM78.918 0.795471H80.0441C81.0565 0.795471 81.9966 1.38433 81.9966 2.64987C81.9966 3.91541 81.0565 4.50429 80.0441 4.50429H78.918V0.795471ZM84.3624 8.80194L80.9687 5.12413C82.4822 5.01049 83.5979 3.97224 83.5979 2.64472C83.5979 1.15706 82.2859 0.00515475 80.4573 0.00515475H77.3787V8.80194H78.918V4.98467L82.4099 8.80194H84.3624ZM74.3001 5.23778V0.00515475H72.7608V5.19646C72.7608 6.98371 72.1254 8.11494 70.8082 8.11494C69.491 8.11494 68.8557 6.98888 68.8557 5.19646V0.00515475H67.3164V5.23778C67.3164 7.51575 68.7937 8.90526 70.8082 8.90526C72.8383 8.90526 74.3001 7.51575 74.3001 5.23778ZM65.4052 8.80194L62.0786 4.03423L65.183 0.00515475H64.0053L61.6034 3.31105L59.2996 0.00515475H57.471L60.5754 4.47328L57.3109 8.80194H58.4989L61.0765 5.21195L63.5662 8.80194H65.4052ZM55.4203 5.23778V0.00515475H53.881V5.19646C53.881 6.98371 53.2405 8.11494 51.9284 8.11494C50.6164 8.11494 49.9759 6.98888 49.9759 5.19646V0.00515475H48.4366V5.23778C48.4366 7.51575 49.9139 8.90526 51.9284 8.90526C53.9533 8.90526 55.4203 7.51575 55.4203 5.23778ZM47.0574 8.80194V7.93932L42.9922 8.01163V0H41.4529V8.79679H47.0574V8.80194Z" fill="#58595B"/>
    <path d="M147.815 28.4718C147.815 27.9295 148.259 27.4852 148.802 27.4852C149.344 27.4852 149.788 27.9243 149.788 28.4718C149.788 29.0142 149.344 29.4584 148.802 29.4584C148.259 29.4584 147.815 29.0142 147.815 28.4718ZM147.603 28.4718C147.603 29.133 148.14 29.6702 148.802 29.6702C149.463 29.6702 150 29.133 150 28.4718C150 27.8107 149.463 27.2734 148.802 27.2734C148.14 27.2734 147.603 27.8107 147.603 28.4718ZM148.59 27.9914H148.776C148.931 27.9863 149.101 27.9966 149.101 28.1826C149.101 28.3685 148.931 28.3737 148.776 28.3737H148.59V27.9914ZM148.342 29.1485H148.595V28.5906H148.781L149.122 29.1485H149.385L149.029 28.57C149.215 28.5493 149.359 28.4305 149.359 28.1929C149.359 27.9295 149.204 27.7797 148.874 27.7797H148.347V29.1485H148.342Z" fill="#58595B"/>
</svg>
