<svg width="24" height="22" viewBox="0 0 24 22" fill="none" xmlns="http://www.w3.org/2000/svg">
    <path d="M0.857143 4.07144H23.1429C23.6163 4.07144 24 3.68771 24 3.21429V1.07144C24 0.598027 23.6163 0.214294 23.1429 0.214294H0.857143C0.383732 0.214294 0 0.598027 0 1.07144V3.21429C0 3.68771 0.383732 4.07144 0.857143 4.07144ZM0.857143 12.6429H23.1429C23.6163 12.6429 24 12.2591 24 11.7857V9.64287C24 9.16946 23.6163 8.78572 23.1429 8.78572H0.857143C0.383732 8.78572 0 9.16946 0 9.64287V11.7857C0 12.2591 0.383732 12.6429 0.857143 12.6429ZM0.857143 21.2143H23.1429C23.6163 21.2143 24 20.8306 24 20.3572V18.2143C24 17.7409 23.6163 17.3572 23.1429 17.3572H0.857143C0.383732 17.3572 0 17.7409 0 18.2143V20.3572C0 20.8306 0.383732 21.2143 0.857143 21.2143Z" fill="#01385E"/>
</svg>