<svg width="37" height="38" viewBox="0 0 37 38" fill="none" xmlns="http://www.w3.org/2000/svg">
    <g clip-path="url(#clip0_1307_4599)">
        <path d="M17.8292 15.6069L18.1827 15.9604L18.5363 15.6069L23.9911 10.152C24.4652 9.67795 25.2343 9.67795 25.7084 10.152L26.9205 11.3642C27.3946 11.8383 27.3946 12.6074 26.9205 13.0815L21.4657 18.5363L21.1122 18.8899L21.4657 19.2434L26.9205 24.6982C27.3946 25.1723 27.3946 25.9414 26.9205 26.4155L25.7084 27.6277C25.2343 28.1018 24.4652 28.1018 23.9911 27.6277L18.5363 22.1729L18.1827 21.8193L17.8292 22.1729L12.3743 27.6277C11.9003 28.1018 11.1312 28.1018 10.6571 27.6277L9.4449 26.4155C8.97081 25.9414 8.97081 25.1723 9.4449 24.6982L14.8997 19.2434L15.2533 18.8899L14.8997 18.5363L9.4449 13.0815C8.97081 12.6074 8.97081 11.8383 9.4449 11.3642L10.6571 10.152C11.1312 9.67795 11.9003 9.67795 12.3743 10.152L17.8292 15.6069Z"
              fill="#01385E" stroke="white"/>
    </g>
    <defs>
        <clipPath id="clip0_1307_4599">
            <rect width="24" height="27.4286" fill="white"
                  transform="translate(0 17.6777) rotate(-45)"/>
        </clipPath>
    </defs>
</svg>